SplineFontDB: 3.2
FontName: 5x7ascii
FullName: 5x7ascii
FamilyName: F5x7ascii
Weight: Regular
Copyright: Copyright (c) 2020, Indiana Kernick
UComments: "2019-3-31: Created with FontForge (http://fontforge.org)"
Version: 001.000
ItalicAngle: 0
UnderlinePosition: 0
UnderlineWidth: 0
Ascent: 16
Descent: 0
InvalidEm: 0
LayerCount: 2
Layer: 0 0 "Back" 1
Layer: 1 0 "Fore" 0
XUID: [1021 489 430796462 7463168]
StyleMap: 0x0000
FSType: 0
OS2Version: 0
OS2_WeightWidthSlopeOnly: 0
OS2_UseTypoMetrics: 1
CreationTime: 1554010451
ModificationTime: 1589786408
PfmFamily: 17
TTFWeight: 400
TTFWidth: 5
LineGap: 2
VLineGap: 0
OS2TypoAscent: 0
OS2TypoAOffset: 1
OS2TypoDescent: 0
OS2TypoDOffset: 1
OS2TypoLinegap: 2
OS2WinAscent: 0
OS2WinAOffset: 1
OS2WinDescent: 0
OS2WinDOffset: 1
HheadAscent: 0
HheadAOffset: 1
HheadDescent: 0
HheadDOffset: 1
OS2Vendor: 'PfEd'
MarkAttachClasses: 1
DEI: 91125
LangName: 1033
Encoding: UnicodeBmp
UnicodeInterp: none
NameList: AGL For New Fonts
DisplaySize: -48
AntiAlias: 0
FitToEm: 0
WinInfo: 54 27 8
BeginPrivate: 0
EndPrivate
Grid
0 0 m 5
 0 14 l 5
 10 14 l 5
 10 0 l 5
 0 0 l 5
EndSplineSet
TeXData: 1 0 0 786432 393216 262144 655360 1048576 262144 783286 444596 497025 792723 393216 433062 380633 303038 157286 324010 404750 52429 2506097 1059062 262144
BeginChars: 65536 113

StartChar: exclam
Encoding: 33 33 0
Width: 12
VWidth: 0
Flags: HW
LayerCount: 2
Fore
SplineSet
4 2 m 5
 4 0 l 5
 6 0 l 5
 6 2 l 5
 4 2 l 5
4 14 m 1
 6 14 l 1
 6 4 l 1
 4 4 l 1
 4 14 l 1
EndSplineSet
EndChar

StartChar: quotedbl
Encoding: 34 34 1
Width: 12
VWidth: 0
Flags: HW
LayerCount: 2
Fore
SplineSet
2 14 m 29
 4 14 l 25
 4 10 l 25
 2 10 l 25
 2 14 l 29
6 14 m 25
 8 14 l 25
 8 10 l 25
 6 10 l 25
 6 14 l 25
EndSplineSet
EndChar

StartChar: numbersign
Encoding: 35 35 2
Width: 12
VWidth: 0
Flags: HW
LayerCount: 2
Fore
SplineSet
6 8 m 29
 4 8 l 25
 4 6 l 25
 6 6 l 25
 6 8 l 29
2 14 m 25
 4 14 l 25
 4 10 l 25
 6 10 l 25
 6 14 l 25
 8 14 l 25
 8 10 l 25
 10 10 l 25
 10 8 l 25
 8 8 l 25
 8 6 l 25
 10 6 l 25
 10 4 l 25
 8 4 l 25
 8 0 l 25
 6 0 l 25
 6 4 l 25
 4 4 l 25
 4 0 l 25
 2 0 l 25
 2 4 l 25
 0 4 l 25
 0 6 l 25
 2 6 l 25
 2 8 l 25
 0 8 l 25
 0 10 l 25
 2 10 l 25
 2 14 l 25
EndSplineSet
EndChar

StartChar: dollar
Encoding: 36 36 3
Width: 12
VWidth: 0
Flags: HW
LayerCount: 2
Fore
SplineSet
8 6 m 5
 8 4 l 5
 10 4 l 5
 10 6 l 5
 8 6 l 5
0 10 m 1
 0 8 l 1
 2 8 l 1
 2 10 l 1
 0 10 l 1
4 14 m 25
 6 14 l 25
 6 12 l 25
 10 12 l 1
 10 10 l 1
 6 10 l 25
 6 8 l 25
 8 8 l 25
 8 6 l 25
 6 6 l 25
 6 4 l 25
 8 4 l 25
 8 2 l 25
 6 2 l 25
 6 0 l 25
 4 0 l 25
 4 2 l 25
 0 2 l 25
 0 4 l 25
 4 4 l 25
 4 6 l 25
 2 6 l 25
 2 8 l 25
 4 8 l 25
 4 10 l 25
 2 10 l 25
 2 12 l 25
 4 12 l 25
 4 14 l 25
EndSplineSet
EndChar

StartChar: percent
Encoding: 37 37 4
Width: 12
VWidth: 0
Flags: HW
LayerCount: 2
Fore
SplineSet
0 14 m 1
 0 10 l 1
 4 10 l 1
 4 14 l 1
 0 14 l 1
10 0 m 1
 10 4 l 1
 6 4 l 1
 6 0 l 1
 10 0 l 1
6 8 m 1
 6 6 l 1
 4 6 l 1
 4 8 l 1
 6 8 l 1
6 12 m 1
 6 8 l 1
 8 8 l 1
 8 12 l 1
 6 12 l 1
2 2 m 1
 2 6 l 1
 4 6 l 1
 4 2 l 5
 2 2 l 1
0 0 m 1
 0 2 l 1
 2 2 l 1
 2 0 l 1
 0 0 l 1
8 14 m 1
 8 12 l 1
 10 12 l 1
 10 14 l 1
 8 14 l 1
EndSplineSet
EndChar

StartChar: ampersand
Encoding: 38 38 5
Width: 12
VWidth: 0
Flags: HW
LayerCount: 2
Fore
SplineSet
6 6 m 5
 6 4 l 5
 4 4 l 5
 4 6 l 5
 6 6 l 5
10 6 m 1
 10 4 l 1
 8 4 l 1
 8 6 l 1
 10 6 l 1
8 2 m 1
 8 0 l 1
 10 0 l 1
 10 2 l 1
 8 2 l 1
6 4 m 1
 6 2 l 1
 8 2 l 1
 8 4 l 1
 6 4 l 1
2 2 m 1
 2 0 l 1
 6 0 l 1
 6 2 l 1
 2 2 l 1
2 6 m 1
 2 2 l 1
 0 2 l 1
 0 6 l 1
 2 6 l 1
4 8 m 1
 4 6 l 1
 2 6 l 1
 2 8 l 1
 4 8 l 1
4 12 m 1
 4 8 l 1
 6 8 l 1
 6 12 l 1
 4 12 l 1
2 12 m 1
 2 8 l 1
 0 8 l 1
 0 12 l 1
 2 12 l 1
2 14 m 1
 2 12 l 1
 4 12 l 1
 4 14 l 1
 2 14 l 1
EndSplineSet
EndChar

StartChar: quotesingle
Encoding: 39 39 6
Width: 12
VWidth: 0
Flags: HW
LayerCount: 2
Fore
SplineSet
6 14 m 5
 6 10 l 5
 4 10 l 5
 4 14 l 5
 6 14 l 5
EndSplineSet
EndChar

StartChar: parenleft
Encoding: 40 40 7
Width: 12
VWidth: 0
Flags: HW
LayerCount: 2
Fore
SplineSet
6 2 m 5
 6 0 l 5
 8 0 l 5
 8 2 l 5
 6 2 l 5
4 4 m 1
 4 2 l 1
 6 2 l 1
 6 4 l 1
 4 4 l 1
6 12 m 1
 6 14 l 1
 8 14 l 1
 8 12 l 1
 6 12 l 1
4 10 m 1
 4 12 l 1
 6 12 l 1
 6 10 l 1
 4 10 l 1
2 10 m 1
 2 4 l 1
 4 4 l 1
 4 10 l 1
 2 10 l 1
EndSplineSet
EndChar

StartChar: parenright
Encoding: 41 41 8
Width: 12
VWidth: 0
Flags: HW
LayerCount: 2
Fore
SplineSet
4 2 m 5
 4 0 l 5
 2 0 l 5
 2 2 l 5
 4 2 l 5
6 4 m 1
 6 2 l 1
 4 2 l 1
 4 4 l 1
 6 4 l 1
6 10 m 1
 6 4 l 1
 8 4 l 1
 8 10 l 1
 6 10 l 1
4 12 m 1
 4 10 l 1
 6 10 l 1
 6 12 l 1
 4 12 l 1
2 14 m 1
 2 12 l 1
 4 12 l 1
 4 14 l 1
 2 14 l 1
EndSplineSet
EndChar

StartChar: asterisk
Encoding: 42 42 9
Width: 12
VWidth: 0
Flags: HW
LayerCount: 2
Fore
SplineSet
4 12 m 29
 6 12 l 25
 6 10 l 25
 8 10 l 25
 8 8 l 25
 10 8 l 25
 10 6 l 25
 8 6 l 25
 8 4 l 25
 6 4 l 25
 6 2 l 25
 4 2 l 25
 4 4 l 25
 2 4 l 25
 2 6 l 25
 0 6 l 25
 0 8 l 25
 2 8 l 25
 2 10 l 25
 4 10 l 25
 4 12 l 29
8 4 m 1
 8 2 l 1
 10 2 l 1
 10 4 l 1
 8 4 l 1
2 4 m 1
 2 2 l 1
 0 2 l 1
 0 4 l 1
 2 4 l 1
8 12 m 1
 8 10 l 1
 10 10 l 1
 10 12 l 1
 8 12 l 1
0 12 m 1
 0 10 l 1
 2 10 l 1
 2 12 l 1
 0 12 l 1
EndSplineSet
EndChar

StartChar: plus
Encoding: 43 43 10
Width: 12
VWidth: 0
Flags: HW
LayerCount: 2
Fore
SplineSet
4 12 m 29
 6 12 l 25
 6 8 l 25
 10 8 l 25
 10 6 l 25
 6 6 l 25
 6 2 l 25
 4 2 l 25
 4 6 l 25
 0 6 l 25
 0 8 l 25
 4 8 l 25
 4 12 l 29
EndSplineSet
EndChar

StartChar: comma
Encoding: 44 44 11
Width: 12
VWidth: 0
Flags: HW
LayerCount: 2
Fore
SplineSet
4 4 m 29
 6 4 l 25
 6 2 l 25
 4 2 l 25
 4 4 l 29
2 0 m 25
 2 2 l 25
 4 2 l 25
 4 0 l 25
 2 0 l 25
EndSplineSet
EndChar

StartChar: hyphen
Encoding: 45 45 12
Width: 12
VWidth: 0
Flags: HW
LayerCount: 2
Fore
SplineSet
0 8 m 5
 0 6 l 5
 10 6 l 5
 10 8 l 5
 0 8 l 5
EndSplineSet
EndChar

StartChar: period
Encoding: 46 46 13
Width: 12
VWidth: 0
Flags: HW
LayerCount: 2
Fore
SplineSet
2 0 m 5
 2 4 l 5
 6 4 l 5
 6 0 l 5
 2 0 l 5
EndSplineSet
EndChar

StartChar: slash
Encoding: 47 47 14
Width: 12
VWidth: 0
Flags: HW
LayerCount: 2
Fore
SplineSet
8 12 m 5
 8 14 l 5
 10 14 l 5
 10 12 l 5
 8 12 l 5
6 8 m 1
 6 12 l 1
 8 12 l 1
 8 8 l 1
 6 8 l 1
4 6 m 1
 4 8 l 1
 6 8 l 1
 6 6 l 1
 4 6 l 1
2 2 m 1
 2 6 l 1
 4 6 l 1
 4 2 l 1
 2 2 l 1
0 0 m 1
 0 2 l 1
 2 2 l 1
 2 0 l 1
 0 0 l 1
EndSplineSet
EndChar

StartChar: zero
Encoding: 48 48 15
Width: 12
VWidth: 0
Flags: HW
LayerCount: 2
Fore
SplineSet
8 12 m 29
 10 12 l 25
 10 2 l 25
 8 2 l 25
 8 8 l 25
 6 8 l 25
 6 10 l 25
 8 10 l 25
 8 12 l 29
0 12 m 25
 2 12 l 25
 2 6 l 25
 4 6 l 25
 4 4 l 25
 2 4 l 25
 2 2 l 25
 0 2 l 25
 0 12 l 25
4 8 m 1
 4 6 l 1
 6 6 l 1
 6 8 l 1
 4 8 l 1
2 0 m 1
 2 2 l 1
 8 2 l 1
 8 0 l 1
 2 0 l 1
2 14 m 1
 2 12 l 1
 8 12 l 1
 8 14 l 1
 2 14 l 1
EndSplineSet
EndChar

StartChar: one
Encoding: 49 49 16
Width: 12
VWidth: 0
Flags: HW
LayerCount: 2
Fore
SplineSet
4 14 m 25
 6 14 l 25
 6 2 l 1
 10 2 l 1
 10 0 l 1
 0 0 l 1
 0 2 l 1
 4 2 l 1
 4 10 l 1
 0 10 l 1
 0 12 l 5
 4 12 l 1
 4 14 l 25
EndSplineSet
EndChar

StartChar: two
Encoding: 50 50 17
Width: 12
VWidth: 0
Flags: HW
LayerCount: 2
Fore
SplineSet
2 4 m 29
 4 4 l 25
 4 2 l 25
 10 2 l 25
 10 0 l 25
 0 0 l 25
 0 2 l 25
 2 2 l 25
 2 4 l 29
4 6 m 1
 4 4 l 1
 6 4 l 1
 6 6 l 1
 4 6 l 1
8 8 m 1
 8 6 l 1
 6 6 l 1
 6 8 l 1
 8 8 l 1
8 12 m 1
 8 8 l 1
 10 8 l 1
 10 12 l 1
 8 12 l 1
2 12 m 1
 2 14 l 1
 8 14 l 1
 8 12 l 1
 2 12 l 1
0 12 m 1
 0 10 l 1
 2 10 l 1
 2 12 l 1
 0 12 l 1
EndSplineSet
EndChar

StartChar: three
Encoding: 51 51 18
Width: 12
VWidth: 0
Flags: HW
LayerCount: 2
Fore
SplineSet
0 4 m 5
 0 2 l 5
 2 2 l 5
 2 4 l 5
 0 4 l 5
8 2 m 1
 8 0 l 1
 2 0 l 1
 2 2 l 1
 8 2 l 1
8 6 m 1
 8 2 l 1
 10 2 l 1
 10 6 l 1
 8 6 l 1
8 8 m 1
 8 6 l 1
 4 6 l 1
 4 8 l 1
 8 8 l 1
8 12 m 1
 8 8 l 1
 10 8 l 1
 10 12 l 1
 8 12 l 1
2 14 m 1
 2 12 l 1
 8 12 l 1
 8 14 l 1
 2 14 l 1
0 12 m 1
 0 10 l 1
 2 10 l 1
 2 12 l 1
 0 12 l 1
EndSplineSet
EndChar

StartChar: four
Encoding: 52 52 19
Width: 12
VWidth: 0
Flags: HW
LayerCount: 2
Fore
SplineSet
2 10 m 5
 2 8 l 5
 4 8 l 5
 4 10 l 5
 2 10 l 5
8 0 m 25
 8 4 l 25
 10 4 l 25
 10 6 l 25
 8 6 l 25
 8 14 l 25
 6 14 l 25
 6 12 l 25
 4 12 l 25
 4 10 l 25
 6 10 l 25
 6 6 l 25
 2 6 l 25
 2 8 l 25
 0 8 l 25
 0 4 l 25
 6 4 l 25
 6 0 l 25
 8 0 l 25
EndSplineSet
EndChar

StartChar: five
Encoding: 53 53 20
Width: 12
VWidth: 0
Flags: HW
LayerCount: 2
Fore
SplineSet
2 10 m 1053
0 14 m 25
 10 14 l 25
 10 12 l 25
 2 12 l 25
 2 10 l 25
 8 10 l 25
 8 8 l 25
 0 8 l 25
 0 14 l 25
8 2 m 1
 8 8 l 1
 10 8 l 1
 10 2 l 1
 8 2 l 1
2 2 m 1
 2 0 l 1
 8 0 l 1
 8 2 l 1
 2 2 l 1
0 4 m 1
 0 2 l 1
 2 2 l 1
 2 4 l 1
 0 4 l 1
EndSplineSet
EndChar

StartChar: six
Encoding: 54 54 21
Width: 12
VWidth: 0
Flags: HW
LayerCount: 2
Fore
SplineSet
0 10 m 29
 2 10 l 25
 2 8 l 25
 8 8 l 25
 8 6 l 25
 2 6 l 25
 2 2 l 25
 0 2 l 25
 0 10 l 29
4 12 m 1
 4 14 l 1
 8 14 l 1
 8 12 l 1
 4 12 l 1
2 10 m 1
 2 12 l 1
 4 12 l 1
 4 10 l 1
 2 10 l 1
8 2 m 1
 8 6 l 1
 10 6 l 1
 10 2 l 1
 8 2 l 1
2 0 m 1
 2 2 l 1
 8 2 l 1
 8 0 l 1
 2 0 l 1
EndSplineSet
EndChar

StartChar: seven
Encoding: 55 55 22
Width: 12
VWidth: 0
Flags: HW
LayerCount: 2
Fore
SplineSet
0 14 m 29
 10 14 l 25
 10 8 l 25
 8 8 l 25
 8 12 l 25
 0 12 l 25
 0 14 l 29
6 4 m 1
 6 8 l 1
 8 8 l 1
 8 4 l 1
 6 4 l 1
4 0 m 1
 4 4 l 1
 6 4 l 1
 6 0 l 1
 4 0 l 1
EndSplineSet
EndChar

StartChar: eight
Encoding: 56 56 23
Width: 12
VWidth: 0
Flags: HW
LayerCount: 2
Fore
SplineSet
8 12 m 5
 8 8 l 5
 10 8 l 5
 10 12 l 5
 8 12 l 5
8 6 m 1
 8 2 l 1
 10 2 l 1
 10 6 l 1
 8 6 l 1
0 6 m 1
 0 2 l 1
 2 2 l 1
 2 6 l 1
 0 6 l 1
2 12 m 1
 2 8 l 1
 0 8 l 1
 0 12 l 1
 2 12 l 1
2 8 m 1
 2 6 l 1
 8 6 l 1
 8 8 l 1
 2 8 l 1
2 0 m 1
 2 2 l 1
 8 2 l 1
 8 0 l 1
 2 0 l 1
2 14 m 1
 2 12 l 1
 8 12 l 1
 8 14 l 1
 2 14 l 1
EndSplineSet
EndChar

StartChar: nine
Encoding: 57 57 24
Width: 12
VWidth: 0
Flags: HW
LayerCount: 2
Fore
SplineSet
8 12 m 29
 10 12 l 25
 10 4 l 25
 8 4 l 25
 8 6 l 25
 2 6 l 25
 2 8 l 25
 8 8 l 25
 8 12 l 29
2 12 m 1
 2 8 l 1
 0 8 l 1
 0 12 l 1
 2 12 l 1
2 14 m 1
 2 12 l 1
 8 12 l 1
 8 14 l 1
 2 14 l 1
6 2 m 1
 6 4 l 1
 8 4 l 1
 8 2 l 1
 6 2 l 1
2 0 m 1
 2 2 l 1
 6 2 l 1
 6 0 l 1
 2 0 l 1
EndSplineSet
EndChar

StartChar: colon
Encoding: 58 58 25
Width: 12
VWidth: 0
Flags: HW
LayerCount: 2
Fore
SplineSet
2 10 m 29
 2 14 l 25
 6 14 l 25
 6 10 l 25
 2 10 l 29
2 0 m 1
 2 4 l 1
 6 4 l 1
 6 0 l 1
 2 0 l 1
EndSplineSet
EndChar

StartChar: semicolon
Encoding: 59 59 26
Width: 12
VWidth: 0
Flags: HW
LayerCount: 2
Fore
SplineSet
4 2 m 5
 4 4 l 5
 6 4 l 5
 6 2 l 5
 4 2 l 5
2 0 m 1
 2 2 l 1
 4 2 l 1
 4 0 l 1
 2 0 l 1
2 14 m 1
 2 10 l 1
 6 10 l 1
 6 14 l 1
 2 14 l 1
EndSplineSet
EndChar

StartChar: less
Encoding: 60 60 27
Width: 12
VWidth: 0
Flags: HW
LayerCount: 2
Fore
SplineSet
6 2 m 5
 6 0 l 5
 8 0 l 5
 8 2 l 5
 6 2 l 5
4 2 m 1
 4 4 l 1
 6 4 l 1
 6 2 l 1
 4 2 l 1
2 6 m 1
 2 4 l 1
 4 4 l 1
 4 6 l 1
 2 6 l 1
6 12 m 1
 6 14 l 1
 8 14 l 1
 8 12 l 1
 6 12 l 1
4 10 m 1
 4 12 l 1
 6 12 l 1
 6 10 l 1
 4 10 l 1
2 8 m 1
 2 10 l 1
 4 10 l 1
 4 8 l 1
 2 8 l 1
0 8 m 1
 0 6 l 1
 2 6 l 1
 2 8 l 1
 0 8 l 1
EndSplineSet
EndChar

StartChar: equal
Encoding: 61 61 28
Width: 12
VWidth: 0
Flags: HW
LayerCount: 2
Fore
SplineSet
10 6 m 5
 10 4 l 5
 0 4 l 5
 0 6 l 5
 10 6 l 5
0 10 m 1
 0 8 l 1
 10 8 l 1
 10 10 l 1
 0 10 l 1
EndSplineSet
EndChar

StartChar: greater
Encoding: 62 62 29
Width: 12
VWidth: 0
Flags: HW
LayerCount: 2
Fore
SplineSet
2 2 m 5
 2 0 l 5
 4 0 l 5
 4 2 l 5
 2 2 l 5
6 4 m 1
 6 2 l 1
 4 2 l 1
 4 4 l 1
 6 4 l 1
8 6 m 1
 8 4 l 1
 6 4 l 1
 6 6 l 1
 8 6 l 1
8 6 m 1
 8 8 l 1
 10 8 l 1
 10 6 l 1
 8 6 l 1
6 10 m 1
 6 8 l 1
 8 8 l 1
 8 10 l 1
 6 10 l 1
4 12 m 1
 4 10 l 1
 6 10 l 1
 6 12 l 1
 4 12 l 1
2 14 m 1
 2 12 l 1
 4 12 l 1
 4 14 l 1
 2 14 l 1
EndSplineSet
EndChar

StartChar: question
Encoding: 63 63 30
Width: 12
VWidth: 0
Flags: HW
LayerCount: 2
Fore
SplineSet
2 12 m 1
 2 10 l 1
 0 10 l 1
 0 12 l 1
 2 12 l 1
8 14 m 1
 8 12 l 1
 2 12 l 1
 2 14 l 1
 8 14 l 1
8 8 m 1
 8 12 l 1
 10 12 l 1
 10 8 l 5
 8 8 l 1
6 6 m 1
 6 8 l 1
 8 8 l 1
 8 6 l 1
 6 6 l 1
6 4 m 1
 6 6 l 1
 4 6 l 1
 4 4 l 1
 6 4 l 1
4 0 m 1
 4 2 l 1
 6 2 l 1
 6 0 l 1
 4 0 l 1
EndSplineSet
EndChar

StartChar: at
Encoding: 64 64 31
Width: 12
VWidth: 0
Flags: HW
LayerCount: 2
Fore
SplineSet
2 8 m 29
 6 8 l 25
 6 4 l 25
 4 4 l 25
 4 6 l 25
 2 6 l 25
 2 8 l 29
2 2 m 1
 2 6 l 1
 0 6 l 1
 0 2 l 1
 2 2 l 1
8 2 m 1
 8 0 l 1
 2 0 l 1
 2 2 l 1
 8 2 l 1
8 12 m 1
 10 12 l 1
 10 2 l 1
 8 2 l 1
 8 12 l 1
2 14 m 1
 2 12 l 1
 8 12 l 1
 8 14 l 1
 2 14 l 1
0 12 m 1
 0 10 l 1
 2 10 l 1
 2 12 l 1
 0 12 l 1
EndSplineSet
EndChar

StartChar: A
Encoding: 65 65 32
Width: 12
VWidth: 0
Flags: HW
LayerCount: 2
Fore
SplineSet
0 12 m 29
 2 12 l 25
 2 8 l 25
 8 8 l 25
 8 12 l 25
 10 12 l 25
 10 0 l 25
 8 0 l 25
 8 6 l 25
 2 6 l 25
 2 0 l 25
 0 0 l 25
 0 12 l 29
2 14 m 1
 2 12 l 1
 8 12 l 1
 8 14 l 1
 2 14 l 1
EndSplineSet
EndChar

StartChar: B
Encoding: 66 66 33
Width: 12
VWidth: 0
Flags: HW
LayerCount: 2
Fore
SplineSet
0 14 m 29
 8 14 l 25
 8 12 l 25
 2 12 l 25
 2 8 l 25
 8 8 l 25
 8 6 l 25
 2 6 l 25
 2 2 l 25
 8 2 l 25
 8 0 l 25
 0 0 l 25
 0 14 l 29
10 6 m 1
 10 2 l 1
 8 2 l 1
 8 6 l 1
 10 6 l 1
10 12 m 1
 10 8 l 1
 8 8 l 1
 8 12 l 1
 10 12 l 1
EndSplineSet
EndChar

StartChar: C
Encoding: 67 67 34
Width: 12
VWidth: 0
Flags: HW
LayerCount: 2
Fore
SplineSet
8 4 m 5
 8 2 l 5
 10 2 l 5
 10 4 l 5
 8 4 l 5
8 12 m 1
 8 10 l 1
 10 10 l 1
 10 12 l 1
 8 12 l 1
2 2 m 1
 2 0 l 1
 8 0 l 1
 8 2 l 1
 2 2 l 1
2 14 m 1
 2 12 l 1
 8 12 l 1
 8 14 l 1
 2 14 l 1
0 12 m 1
 2 12 l 1
 2 2 l 1
 0 2 l 1
 0 12 l 1
EndSplineSet
EndChar

StartChar: D
Encoding: 68 68 35
Width: 12
VWidth: 0
Flags: HW
LayerCount: 2
Fore
SplineSet
0 14 m 29
 8 14 l 25
 8 12 l 25
 2 12 l 25
 2 2 l 25
 8 2 l 25
 8 0 l 25
 0 0 l 25
 0 14 l 29
8 12 m 1
 10 12 l 1
 10 2 l 1
 8 2 l 1
 8 12 l 1
EndSplineSet
EndChar

StartChar: E
Encoding: 69 69 36
Width: 12
VWidth: 0
Flags: HW
LayerCount: 2
Fore
SplineSet
0 14 m 29
 10 14 l 25
 10 12 l 25
 2 12 l 25
 2 8 l 25
 8 8 l 25
 8 6 l 25
 2 6 l 25
 2 2 l 25
 10 2 l 25
 10 0 l 25
 0 0 l 25
 0 14 l 29
EndSplineSet
EndChar

StartChar: F
Encoding: 70 70 37
Width: 12
VWidth: 0
Flags: HW
LayerCount: 2
Fore
SplineSet
0 14 m 29
 10 14 l 25
 10 12 l 25
 2 12 l 25
 2 8 l 25
 8 8 l 25
 8 6 l 25
 2 6 l 25
 2 0 l 25
 0 0 l 25
 0 14 l 29
EndSplineSet
EndChar

StartChar: G
Encoding: 71 71 38
Width: 12
VWidth: 0
Flags: HW
LayerCount: 2
Fore
SplineSet
10 2 m 1
 8 2 l 1
 8 6 l 25
 4 6 l 25
 4 8 l 25
 10 8 l 25
 10 2 l 1
2 0 m 1
 2 2 l 1
 8 2 l 1
 8 0 l 1
 2 0 l 1
2 12 m 1
 2 2 l 1
 0 2 l 1
 0 12 l 1
 2 12 l 1
8 12 m 1
 8 10 l 1
 10 10 l 1
 10 12 l 1
 8 12 l 1
2 14 m 1
 2 12 l 1
 8 12 l 1
 8 14 l 1
 2 14 l 1
EndSplineSet
EndChar

StartChar: H
Encoding: 72 72 39
Width: 12
VWidth: 0
Flags: HW
LayerCount: 2
Fore
SplineSet
0 14 m 29
 2 14 l 25
 2 8 l 25
 8 8 l 25
 8 14 l 25
 10 14 l 25
 10 0 l 25
 8 0 l 25
 8 6 l 25
 2 6 l 25
 2 0 l 25
 0 0 l 25
 0 14 l 29
EndSplineSet
EndChar

StartChar: I
Encoding: 73 73 40
Width: 12
VWidth: 0
Flags: HW
LayerCount: 2
Fore
SplineSet
0 14 m 1
 10 14 l 1
 10 12 l 1
 6 12 l 1
 6 2 l 1
 10 2 l 5
 10 0 l 1
 0 0 l 1
 0 2 l 1
 4 2 l 1
 4 12 l 1
 0 12 l 1
 0 14 l 1
EndSplineSet
EndChar

StartChar: J
Encoding: 74 74 41
Width: 12
VWidth: 0
Flags: HW
LayerCount: 2
Fore
SplineSet
4 14 m 25
 10 14 l 25
 10 2 l 25
 8 2 l 25
 8 12 l 25
 4 12 l 25
 4 14 l 25
0 4 m 1
 0 2 l 1
 2 2 l 1
 2 4 l 1
 0 4 l 1
8 2 m 1
 8 0 l 5
 2 0 l 1
 2 2 l 1
 8 2 l 1
EndSplineSet
EndChar

StartChar: K
Encoding: 75 75 42
Width: 12
VWidth: 0
Flags: HW
LayerCount: 2
Fore
SplineSet
8 2 m 5
 8 0 l 5
 10 0 l 5
 10 2 l 5
 8 2 l 5
6 4 m 1
 6 2 l 1
 8 2 l 1
 8 4 l 1
 6 4 l 1
4 6 m 1
 4 4 l 1
 6 4 l 1
 6 6 l 1
 4 6 l 1
8 12 m 1
 8 14 l 1
 10 14 l 1
 10 12 l 1
 8 12 l 1
6 10 m 1
 6 12 l 1
 8 12 l 1
 8 10 l 1
 6 10 l 1
4 8 m 1
 4 10 l 1
 6 10 l 1
 6 8 l 1
 4 8 l 1
0 14 m 25
 2 14 l 25
 2 8 l 25
 4 8 l 25
 4 6 l 25
 2 6 l 25
 2 0 l 25
 0 0 l 25
 0 14 l 25
EndSplineSet
EndChar

StartChar: L
Encoding: 76 76 43
Width: 12
VWidth: 0
Flags: HW
LayerCount: 2
Fore
SplineSet
0 14 m 29
 2 14 l 25
 2 2 l 25
 10 2 l 25
 10 0 l 25
 0 0 l 25
 0 14 l 29
EndSplineSet
EndChar

StartChar: M
Encoding: 77 77 44
Width: 12
VWidth: 0
Flags: HW
LayerCount: 2
Fore
SplineSet
4 10 m 1
 4 6 l 1
 6 6 l 5
 6 10 l 1
 4 10 l 1
10 0 m 25
 8 0 l 25
 8 10 l 25
 6 10 l 25
 6 12 l 25
 8 12 l 25
 8 14 l 25
 10 14 l 25
 10 0 l 25
0 0 m 25
 0 14 l 25
 2 14 l 25
 2 12 l 25
 4 12 l 25
 4 10 l 25
 2 10 l 25
 2 0 l 25
 0 0 l 25
EndSplineSet
EndChar

StartChar: N
Encoding: 78 78 45
Width: 12
VWidth: 0
Flags: HW
LayerCount: 2
Fore
SplineSet
4 8 m 1
 4 6 l 1
 6 6 l 1
 6 8 l 1
 4 8 l 1
8 14 m 1
 10 14 l 25
 10 0 l 25
 8 0 l 1
 8 2 l 1
 6 2 l 1
 6 6 l 1
 8 6 l 5
 8 14 l 1
0 14 m 25
 2 14 l 1
 2 12 l 1
 4 12 l 1
 4 8 l 1
 2 8 l 1
 2 0 l 1
 0 0 l 25
 0 14 l 25
EndSplineSet
EndChar

StartChar: O
Encoding: 79 79 46
Width: 12
VWidth: 0
Flags: HW
LayerCount: 2
Fore
SplineSet
8 2 m 5
 8 12 l 5
 10 12 l 5
 10 2 l 5
 8 2 l 5
2 2 m 1
 2 0 l 1
 8 0 l 1
 8 2 l 1
 2 2 l 1
0 12 m 1
 2 12 l 1
 2 2 l 1
 0 2 l 1
 0 12 l 1
2 14 m 1
 2 12 l 1
 8 12 l 1
 8 14 l 1
 2 14 l 1
EndSplineSet
EndChar

StartChar: P
Encoding: 80 80 47
Width: 12
VWidth: 0
Flags: HW
LayerCount: 2
Fore
SplineSet
0 14 m 29
 8 14 l 25
 8 12 l 25
 2 12 l 25
 2 8 l 25
 8 8 l 25
 8 6 l 25
 2 6 l 25
 2 0 l 25
 0 0 l 25
 0 14 l 29
8 12 m 1
 8 8 l 1
 10 8 l 1
 10 12 l 1
 8 12 l 1
EndSplineSet
EndChar

StartChar: Q
Encoding: 81 81 48
Width: 12
VWidth: 0
Flags: HW
LayerCount: 2
Fore
SplineSet
8 4 m 5
 8 12 l 5
 10 12 l 5
 10 4 l 5
 8 4 l 5
4 6 m 1
 4 4 l 1
 6 4 l 1
 6 6 l 1
 4 6 l 1
8 2 m 1
 8 0 l 1
 10 0 l 1
 10 2 l 1
 8 2 l 1
6 4 m 1
 6 2 l 1
 8 2 l 1
 8 4 l 1
 6 4 l 1
2 2 m 1
 2 0 l 1
 6 0 l 1
 6 2 l 1
 2 2 l 1
2 12 m 1
 2 2 l 1
 0 2 l 1
 0 12 l 1
 2 12 l 1
2 14 m 1
 2 12 l 1
 8 12 l 1
 8 14 l 1
 2 14 l 1
EndSplineSet
EndChar

StartChar: R
Encoding: 82 82 49
Width: 12
VWidth: 0
Flags: HW
LayerCount: 2
Fore
SplineSet
0 14 m 29
 8 14 l 25
 8 12 l 25
 2 12 l 25
 2 8 l 25
 8 8 l 25
 8 6 l 25
 2 6 l 25
 2 0 l 25
 0 0 l 25
 0 14 l 29
8 6 m 1
 8 0 l 1
 10 0 l 1
 10 6 l 1
 8 6 l 1
10 12 m 1
 10 8 l 1
 8 8 l 1
 8 12 l 1
 10 12 l 1
EndSplineSet
EndChar

StartChar: S
Encoding: 83 83 50
Width: 12
VWidth: 0
Flags: HW
LayerCount: 2
Fore
SplineSet
8 12 m 5
 8 10 l 5
 10 10 l 5
 10 12 l 5
 8 12 l 5
0 4 m 1
 0 2 l 1
 2 2 l 1
 2 4 l 1
 0 4 l 1
8 6 m 1
 8 2 l 1
 10 2 l 1
 10 6 l 1
 8 6 l 1
2 12 m 1
 2 8 l 1
 0 8 l 1
 0 12 l 1
 2 12 l 1
2 8 m 1
 2 6 l 1
 8 6 l 1
 8 8 l 1
 2 8 l 1
2 0 m 1
 2 2 l 1
 8 2 l 1
 8 0 l 1
 2 0 l 1
2 14 m 1
 2 12 l 1
 8 12 l 1
 8 14 l 1
 2 14 l 1
EndSplineSet
EndChar

StartChar: T
Encoding: 84 84 51
Width: 12
VWidth: 0
Flags: HW
LayerCount: 2
Fore
SplineSet
0 14 m 29
 10 14 l 25
 10 12 l 25
 6 12 l 25
 6 0 l 25
 4 0 l 25
 4 12 l 25
 0 12 l 25
 0 14 l 29
EndSplineSet
EndChar

StartChar: U
Encoding: 85 85 52
Width: 12
VWidth: 0
Flags: HW
LayerCount: 2
Fore
SplineSet
8 2 m 5
 8 14 l 5
 10 14 l 5
 10 2 l 5
 8 2 l 5
2 2 m 1
 2 0 l 1
 8 0 l 1
 8 2 l 1
 2 2 l 1
0 14 m 1
 2 14 l 1
 2 2 l 1
 0 2 l 1
 0 14 l 1
EndSplineSet
EndChar

StartChar: V
Encoding: 86 86 53
Width: 12
VWidth: 0
Flags: HW
LayerCount: 2
Fore
SplineSet
4 4 m 1
 4 0 l 5
 6 0 l 1
 6 4 l 1
 4 4 l 1
6 10 m 1
 6 4 l 1
 8 4 l 1
 8 10 l 1
 6 10 l 1
2 10 m 1
 2 4 l 1
 4 4 l 1
 4 10 l 1
 2 10 l 1
8 14 m 1
 8 10 l 1
 10 10 l 1
 10 14 l 1
 8 14 l 1
0 14 m 1
 0 10 l 1
 2 10 l 1
 2 14 l 1
 0 14 l 1
EndSplineSet
EndChar

StartChar: W
Encoding: 87 87 54
Width: 12
VWidth: 0
Flags: HW
LayerCount: 2
Fore
SplineSet
4 4 m 1
 4 8 l 1
 6 8 l 5
 6 4 l 1
 4 4 l 1
8 14 m 25
 10 14 l 25
 10 0 l 25
 8 0 l 25
 8 2 l 25
 6 2 l 25
 6 4 l 25
 8 4 l 25
 8 14 l 25
0 14 m 25
 2 14 l 25
 2 4 l 25
 4 4 l 25
 4 2 l 25
 2 2 l 25
 2 0 l 25
 0 0 l 25
 0 14 l 25
EndSplineSet
EndChar

StartChar: X
Encoding: 88 88 55
Width: 12
VWidth: 0
Flags: HW
LayerCount: 2
Fore
SplineSet
2 4 m 1
 2 0 l 1
 0 0 l 1
 0 4 l 1
 2 4 l 1
4 8 m 1
 4 6 l 1
 6 6 l 1
 6 8 l 1
 4 8 l 1
8 4 m 1
 8 0 l 1
 10 0 l 1
 10 4 l 1
 8 4 l 1
6 6 m 1
 6 4 l 1
 8 4 l 1
 8 6 l 1
 6 6 l 1
2 6 m 1
 2 4 l 1
 4 4 l 1
 4 6 l 1
 2 6 l 1
8 14 m 1
 8 10 l 1
 10 10 l 5
 10 14 l 1
 8 14 l 1
6 10 m 1
 6 8 l 1
 8 8 l 1
 8 10 l 1
 6 10 l 1
2 10 m 1
 2 8 l 1
 4 8 l 1
 4 10 l 1
 2 10 l 1
0 14 m 1
 0 10 l 1
 2 10 l 1
 2 14 l 1
 0 14 l 1
EndSplineSet
EndChar

StartChar: Y
Encoding: 89 89 56
Width: 12
VWidth: 0
Flags: HW
LayerCount: 2
Fore
SplineSet
4 8 m 5
 6 8 l 5
 6 0 l 5
 4 0 l 5
 4 8 l 5
6 10 m 1
 6 8 l 1
 8 8 l 1
 8 10 l 1
 6 10 l 1
2 10 m 1
 2 8 l 1
 4 8 l 1
 4 10 l 1
 2 10 l 1
8 14 m 1
 8 10 l 1
 10 10 l 1
 10 14 l 1
 8 14 l 1
0 14 m 1
 0 10 l 1
 2 10 l 1
 2 14 l 1
 0 14 l 1
EndSplineSet
EndChar

StartChar: Z
Encoding: 90 90 57
Width: 12
VWidth: 0
Flags: HW
LayerCount: 2
Fore
SplineSet
0 4 m 29
 2 4 l 25
 2 2 l 25
 10 2 l 25
 10 0 l 25
 0 0 l 25
 0 4 l 29
0 14 m 25
 10 14 l 25
 10 10 l 25
 8 10 l 25
 8 12 l 25
 0 12 l 25
 0 14 l 25
6 8 m 1
 6 10 l 1
 8 10 l 1
 8 8 l 1
 6 8 l 1
4 6 m 1
 4 4 l 1
 2 4 l 1
 2 6 l 1
 4 6 l 1
4 8 m 1
 4 6 l 1
 6 6 l 1
 6 8 l 1
 4 8 l 1
EndSplineSet
EndChar

StartChar: bracketleft
Encoding: 91 91 58
Width: 12
VWidth: 0
Flags: HW
LayerCount: 2
Fore
SplineSet
2 14 m 29
 8 14 l 25
 8 12 l 25
 4 12 l 25
 4 2 l 25
 8 2 l 25
 8 0 l 25
 2 0 l 25
 2 14 l 29
EndSplineSet
EndChar

StartChar: backslash
Encoding: 92 92 59
Width: 12
VWidth: 0
Flags: HW
LayerCount: 2
Fore
SplineSet
8 2 m 5
 8 0 l 5
 10 0 l 5
 10 2 l 5
 8 2 l 5
6 6 m 1
 6 2 l 1
 8 2 l 1
 8 6 l 1
 6 6 l 1
4 8 m 1
 4 6 l 1
 6 6 l 1
 6 8 l 1
 4 8 l 1
2 12 m 1
 2 8 l 1
 4 8 l 1
 4 12 l 1
 2 12 l 1
0 14 m 1
 0 12 l 1
 2 12 l 1
 2 14 l 1
 0 14 l 1
EndSplineSet
EndChar

StartChar: bracketright
Encoding: 93 93 60
Width: 12
VWidth: 0
Flags: HW
LayerCount: 2
Fore
SplineSet
2 14 m 29
 8 14 l 25
 8 0 l 25
 2 0 l 25
 2 2 l 25
 6 2 l 25
 6 12 l 25
 2 12 l 25
 2 14 l 29
EndSplineSet
EndChar

StartChar: asciicircum
Encoding: 94 94 61
Width: 12
VWidth: 0
Flags: HW
LayerCount: 2
Fore
SplineSet
8 10 m 5
 8 8 l 5
 10 8 l 5
 10 10 l 5
 8 10 l 5
2 10 m 1
 2 8 l 1
 0 8 l 1
 0 10 l 1
 2 10 l 1
6 12 m 1
 6 10 l 1
 8 10 l 1
 8 12 l 1
 6 12 l 1
4 12 m 1
 4 10 l 1
 2 10 l 1
 2 12 l 1
 4 12 l 1
4 14 m 1
 4 12 l 1
 6 12 l 1
 6 14 l 1
 4 14 l 1
EndSplineSet
EndChar

StartChar: underscore
Encoding: 95 95 62
Width: 12
VWidth: 0
Flags: HW
LayerCount: 2
Fore
SplineSet
0 2 m 5
 0 0 l 5
 10 0 l 5
 10 2 l 5
 0 2 l 5
EndSplineSet
EndChar

StartChar: grave
Encoding: 96 96 63
Width: 12
VWidth: 0
Flags: HW
LayerCount: 2
Fore
SplineSet
6 12 m 5
 6 10 l 5
 8 10 l 5
 8 12 l 5
 6 12 l 5
4 14 m 1
 4 12 l 1
 6 12 l 1
 6 14 l 1
 4 14 l 1
EndSplineSet
EndChar

StartChar: a
Encoding: 97 97 64
Width: 12
VWidth: 0
Flags: HW
LayerCount: 2
Fore
SplineSet
8 8 m 29
 10 8 l 25
 10 0 l 25
 2 0 l 25
 2 2 l 25
 8 2 l 25
 8 4 l 25
 2 4 l 25
 2 6 l 25
 8 6 l 25
 8 8 l 29
2 8 m 1
 2 10 l 1
 8 10 l 1
 8 8 l 1
 2 8 l 1
0 2 m 1
 0 4 l 1
 2 4 l 1
 2 2 l 1
 0 2 l 1
EndSplineSet
EndChar

StartChar: b
Encoding: 98 98 65
Width: 12
VWidth: 0
Flags: HW
LayerCount: 2
Fore
SplineSet
4 10 m 1
 4 8 l 1
 8 8 l 1
 8 10 l 1
 4 10 l 1
0 14 m 25
 2 14 l 1
 2 8 l 1
 4 8 l 1
 4 6 l 1
 2 6 l 5
 2 2 l 1
 8 2 l 25
 8 0 l 25
 0 0 l 25
 0 14 l 25
8 2 m 1
 8 8 l 1
 10 8 l 1
 10 2 l 1
 8 2 l 1
EndSplineSet
EndChar

StartChar: c
Encoding: 99 99 66
Width: 12
VWidth: 0
Flags: HW
LayerCount: 2
Fore
SplineSet
2 2 m 1
 2 0 l 1
 10 0 l 5
 10 2 l 1
 2 2 l 1
2 8 m 1
 2 10 l 1
 10 10 l 1
 10 8 l 1
 2 8 l 1
0 2 m 1
 0 8 l 1
 2 8 l 1
 2 2 l 1
 0 2 l 1
EndSplineSet
EndChar

StartChar: d
Encoding: 100 100 67
Width: 12
VWidth: 0
Flags: HW
LayerCount: 2
Fore
SplineSet
8 14 m 29
 10 14 l 25
 10 0 l 25
 2 0 l 25
 2 2 l 25
 8 2 l 25
 8 6 l 25
 6 6 l 25
 6 8 l 25
 8 8 l 25
 8 14 l 29
2 8 m 1
 2 10 l 1
 6 10 l 1
 6 8 l 1
 2 8 l 1
0 2 m 1
 0 8 l 1
 2 8 l 1
 2 2 l 1
 0 2 l 1
EndSplineSet
EndChar

StartChar: e
Encoding: 101 101 68
Width: 12
VWidth: 0
Flags: HW
LayerCount: 2
Fore
SplineSet
0 2 m 29
 0 8 l 25
 2 8 l 25
 2 6 l 25
 8 6 l 25
 8 8 l 25
 10 8 l 25
 10 4 l 25
 2 4 l 25
 2 2 l 25
 0 2 l 29
2 0 m 1
 2 2 l 1
 8 2 l 1
 8 0 l 1
 2 0 l 1
8 10 m 1
 8 8 l 1
 2 8 l 1
 2 10 l 1
 8 10 l 1
EndSplineSet
EndChar

StartChar: f
Encoding: 102 102 69
Width: 12
VWidth: 0
Flags: HW
LayerCount: 2
Fore
SplineSet
4 12 m 1
 6 12 l 1
 6 10 l 1
 10 10 l 1
 10 8 l 1
 6 8 l 1
 6 0 l 1
 4 0 l 1
 4 8 l 1
 0 8 l 1
 0 10 l 1
 4 10 l 1
 4 12 l 1
10 14 m 5
 10 12 l 1
 6 12 l 1
 6 14 l 1
 10 14 l 5
EndSplineSet
EndChar

StartChar: g
Encoding: 103 103 70
Width: 12
VWidth: 0
Flags: HW
LayerCount: 2
Fore
SplineSet
2 10 m 29
 10 10 l 25
 10 2 l 25
 8 2 l 25
 8 4 l 25
 2 4 l 25
 2 6 l 25
 8 6 l 25
 8 8 l 25
 2 8 l 25
 2 10 l 29
0 6 m 1
 0 8 l 1
 2 8 l 1
 2 6 l 1
 0 6 l 1
2 0 m 1
 2 2 l 1
 8 2 l 1
 8 0 l 1
 2 0 l 1
EndSplineSet
EndChar

StartChar: h
Encoding: 104 104 71
Width: 12
VWidth: 0
Flags: HW
LayerCount: 2
Fore
SplineSet
8 8 m 1
 8 10 l 1
 4 10 l 1
 4 8 l 1
 8 8 l 1
10 0 m 1
 10 8 l 1
 8 8 l 1
 8 0 l 1
 10 0 l 1
0 14 m 25
 2 14 l 1
 2 8 l 1
 4 8 l 1
 4 6 l 1
 2 6 l 5
 2 0 l 1
 0 0 l 25
 0 14 l 25
EndSplineSet
EndChar

StartChar: i
Encoding: 105 105 72
Width: 12
VWidth: 0
Flags: HW
LayerCount: 2
Fore
SplineSet
0 10 m 29
 6 10 l 25
 6 2 l 25
 10 2 l 25
 10 0 l 25
 0 0 l 25
 0 2 l 25
 4 2 l 25
 4 8 l 25
 0 8 l 25
 0 10 l 29
4 14 m 1
 4 12 l 1
 6 12 l 1
 6 14 l 1
 4 14 l 1
EndSplineSet
EndChar

StartChar: j
Encoding: 106 106 73
Width: 12
VWidth: 0
Flags: HW
LayerCount: 2
Fore
SplineSet
4 10 m 29
 10 10 l 25
 10 2 l 25
 8 2 l 25
 8 8 l 25
 4 8 l 25
 4 10 l 29
2 2 m 1
 2 4 l 1
 0 4 l 1
 0 2 l 1
 2 2 l 1
8 2 m 1
 8 0 l 1
 2 0 l 1
 2 2 l 1
 8 2 l 1
8 14 m 1
 8 12 l 1
 10 12 l 1
 10 14 l 1
 8 14 l 1
EndSplineSet
EndChar

StartChar: k
Encoding: 107 107 74
Width: 12
VWidth: 0
Flags: HW
LayerCount: 2
Fore
SplineSet
0 0 m 25
 0 14 l 25
 2 14 l 25
 2 6 l 25
 4 6 l 25
 4 4 l 25
 2 4 l 25
 2 0 l 25
 0 0 l 25
6 2 m 5
 6 0 l 1
 10 0 l 1
 10 2 l 1
 6 2 l 5
4 4 m 1
 4 2 l 1
 6 2 l 1
 6 4 l 1
 4 4 l 1
6 8 m 1
 6 10 l 1
 10 10 l 1
 10 8 l 1
 6 8 l 1
4 6 m 1
 4 8 l 1
 6 8 l 1
 6 6 l 1
 4 6 l 1
EndSplineSet
EndChar

StartChar: l
Encoding: 108 108 75
Width: 12
VWidth: 0
Flags: HW
LayerCount: 2
Fore
SplineSet
0 14 m 29
 6 14 l 25
 6 2 l 25
 4 2 l 25
 4 12 l 25
 0 12 l 25
 0 14 l 29
6 2 m 1
 6 0 l 1
 10 0 l 1
 10 2 l 1
 6 2 l 1
EndSplineSet
EndChar

StartChar: m
Encoding: 109 109 76
Width: 12
VWidth: 0
Flags: HW
LayerCount: 2
Fore
SplineSet
8 8 m 5
 10 8 l 5
 10 0 l 5
 8 0 l 5
 8 8 l 5
6 10 m 1
 6 8 l 1
 8 8 l 1
 8 10 l 1
 6 10 l 1
4 8 m 1
 6 8 l 1
 6 0 l 1
 4 0 l 1
 4 8 l 1
0 10 m 25
 4 10 l 25
 4 8 l 25
 2 8 l 25
 2 0 l 25
 0 0 l 25
 0 10 l 25
EndSplineSet
EndChar

StartChar: n
Encoding: 110 110 77
Width: 12
VWidth: 0
Flags: HW
LayerCount: 2
Fore
SplineSet
8 8 m 5
 10 8 l 5
 10 0 l 5
 8 0 l 5
 8 8 l 5
4 10 m 1
 4 8 l 1
 8 8 l 1
 8 10 l 1
 4 10 l 1
0 10 m 25
 2 10 l 25
 2 8 l 25
 4 8 l 25
 4 6 l 25
 2 6 l 25
 2 0 l 25
 0 0 l 25
 0 10 l 25
EndSplineSet
EndChar

StartChar: o
Encoding: 111 111 78
Width: 12
VWidth: 0
Flags: HW
LayerCount: 2
Fore
SplineSet
2 8 m 5
 2 2 l 5
 0 2 l 5
 0 8 l 5
 2 8 l 5
8 10 m 1
 8 8 l 1
 2 8 l 1
 2 10 l 1
 8 10 l 1
8 2 m 1
 8 8 l 1
 10 8 l 1
 10 2 l 1
 8 2 l 1
2 2 m 1
 2 0 l 1
 8 0 l 1
 8 2 l 1
 2 2 l 1
EndSplineSet
EndChar

StartChar: p
Encoding: 112 112 79
Width: 12
VWidth: 0
Flags: HW
LayerCount: 2
Fore
SplineSet
8 8 m 1
 8 6 l 1
 10 6 l 5
 10 8 l 1
 8 8 l 1
0 0 m 25
 0 10 l 1
 8 10 l 1
 8 8 l 1
 2 8 l 1
 2 6 l 1
 8 6 l 1
 8 4 l 1
 2 4 l 1
 2 0 l 1
 0 0 l 25
EndSplineSet
EndChar

StartChar: q
Encoding: 113 113 80
Width: 12
VWidth: 0
Flags: HW
LayerCount: 2
Fore
SplineSet
2 10 m 25
 10 10 l 25
 10 0 l 25
 8 0 l 1
 8 4 l 5
 2 4 l 1
 2 6 l 1
 8 6 l 1
 8 8 l 1
 2 8 l 25
 2 10 l 25
0 8 m 1
 0 6 l 1
 2 6 l 1
 2 8 l 1
 0 8 l 1
EndSplineSet
EndChar

StartChar: r
Encoding: 114 114 81
Width: 12
VWidth: 0
Flags: HW
LayerCount: 2
Fore
SplineSet
8 8 m 5
 8 6 l 5
 10 6 l 5
 10 8 l 5
 8 8 l 5
4 10 m 1
 4 8 l 1
 8 8 l 1
 8 10 l 1
 4 10 l 1
0 0 m 25
 0 10 l 25
 2 10 l 25
 2 8 l 25
 4 8 l 25
 4 6 l 25
 2 6 l 25
 2 0 l 25
 0 0 l 25
EndSplineSet
EndChar

StartChar: s
Encoding: 115 115 82
Width: 12
VWidth: 0
Flags: HW
LayerCount: 2
Fore
SplineSet
2 10 m 5
 2 8 l 5
 10 8 l 5
 10 10 l 5
 2 10 l 5
2 6 m 1
 2 8 l 1
 0 8 l 1
 0 6 l 1
 2 6 l 1
8 4 m 1
 8 6 l 1
 2 6 l 1
 2 4 l 1
 8 4 l 1
8 2 m 1
 8 4 l 1
 10 4 l 1
 10 2 l 1
 8 2 l 1
0 2 m 1
 0 0 l 1
 8 0 l 1
 8 2 l 1
 0 2 l 1
EndSplineSet
EndChar

StartChar: t
Encoding: 116 116 83
Width: 12
VWidth: 0
Flags: HW
LayerCount: 2
Fore
SplineSet
6 2 m 1
 4 2 l 1
 4 8 l 1
 0 8 l 1
 0 10 l 1
 4 10 l 1
 4 12 l 1
 6 12 l 1
 6 10 l 1
 10 10 l 1
 10 8 l 1
 6 8 l 1
 6 2 l 1
10 0 m 5
 10 2 l 1
 6 2 l 1
 6 0 l 1
 10 0 l 5
EndSplineSet
EndChar

StartChar: u
Encoding: 117 117 84
Width: 12
VWidth: 0
Flags: HW
LayerCount: 2
Fore
SplineSet
8 10 m 29
 10 10 l 25
 10 0 l 25
 8 0 l 25
 8 2 l 25
 6 2 l 25
 6 4 l 25
 8 4 l 25
 8 10 l 29
2 2 m 1
 2 0 l 1
 6 0 l 1
 6 2 l 1
 2 2 l 1
0 2 m 1
 0 10 l 1
 2 10 l 1
 2 2 l 1
 0 2 l 1
EndSplineSet
EndChar

StartChar: v
Encoding: 118 118 85
Width: 12
VWidth: 0
Flags: HW
LayerCount: 2
Fore
SplineSet
2 6 m 5
 2 10 l 5
 0 10 l 5
 0 6 l 5
 2 6 l 5
4 2 m 1
 4 6 l 1
 2 6 l 1
 2 2 l 1
 4 2 l 1
8 6 m 1
 8 10 l 1
 10 10 l 1
 10 6 l 1
 8 6 l 1
6 2 m 1
 6 6 l 1
 8 6 l 1
 8 2 l 1
 6 2 l 1
4 0 m 1
 4 2 l 1
 6 2 l 1
 6 0 l 1
 4 0 l 1
EndSplineSet
EndChar

StartChar: w
Encoding: 119 119 86
Width: 12
VWidth: 0
Flags: HW
LayerCount: 2
Fore
SplineSet
8 10 m 5
 8 2 l 1
 10 2 l 1
 10 10 l 5
 8 10 l 5
6 2 m 1
 6 0 l 1
 8 0 l 1
 8 2 l 1
 6 2 l 1
4 2 m 1
 4 8 l 5
 6 8 l 5
 6 2 l 1
 4 2 l 1
2 2 m 1
 2 0 l 1
 4 0 l 1
 4 2 l 1
 2 2 l 1
0 2 m 1
 0 10 l 5
 2 10 l 5
 2 2 l 1
 0 2 l 1
EndSplineSet
EndChar

StartChar: x
Encoding: 120 120 87
Width: 12
VWidth: 0
Flags: HW
LayerCount: 2
Fore
SplineSet
2 8 m 5
 2 10 l 5
 0 10 l 5
 0 8 l 5
 2 8 l 5
4 6 m 1
 4 8 l 1
 2 8 l 1
 2 6 l 1
 4 6 l 1
8 8 m 1
 8 10 l 1
 10 10 l 1
 10 8 l 1
 8 8 l 1
6 6 m 1
 6 8 l 1
 8 8 l 1
 8 6 l 1
 6 6 l 1
8 2 m 1
 8 0 l 1
 10 0 l 1
 10 2 l 1
 8 2 l 1
6 4 m 1
 6 2 l 1
 8 2 l 1
 8 4 l 1
 6 4 l 1
4 4 m 1
 4 6 l 1
 6 6 l 1
 6 4 l 1
 4 4 l 1
2 2 m 1
 2 4 l 1
 4 4 l 1
 4 2 l 1
 2 2 l 1
0 0 m 1
 0 2 l 1
 2 2 l 1
 2 0 l 1
 0 0 l 1
EndSplineSet
EndChar

StartChar: y
Encoding: 121 121 88
Width: 12
VWidth: 0
Flags: HW
LayerCount: 2
Fore
SplineSet
2 6 m 29
 8 6 l 25
 8 10 l 25
 10 10 l 25
 10 2 l 25
 8 2 l 25
 8 4 l 25
 2 4 l 25
 2 6 l 29
2 2 m 1
 2 0 l 1
 8 0 l 1
 8 2 l 1
 2 2 l 1
0 6 m 1
 0 10 l 1
 2 10 l 1
 2 6 l 1
 0 6 l 1
EndSplineSet
EndChar

StartChar: z
Encoding: 122 122 89
Width: 12
VWidth: 0
Flags: HW
LayerCount: 2
Fore
SplineSet
4 6 m 5
 4 4 l 5
 6 4 l 5
 6 6 l 5
 4 6 l 5
0 0 m 25
 0 2 l 25
 2 2 l 25
 2 4 l 25
 4 4 l 25
 4 2 l 25
 10 2 l 25
 10 0 l 25
 0 0 l 25
0 10 m 25
 10 10 l 25
 10 8 l 25
 8 8 l 25
 8 6 l 25
 6 6 l 25
 6 8 l 25
 0 8 l 25
 0 10 l 25
EndSplineSet
EndChar

StartChar: braceleft
Encoding: 123 123 90
Width: 12
VWidth: 0
Flags: HW
LayerCount: 2
Fore
SplineSet
6 2 m 1
 6 0 l 1
 8 0 l 1
 8 2 l 1
 6 2 l 1
4 6 m 1
 4 2 l 5
 6 2 l 1
 6 6 l 1
 4 6 l 1
4 8 m 1
 4 6 l 1
 2 6 l 1
 2 8 l 1
 4 8 l 1
6 12 m 1
 6 8 l 1
 4 8 l 1
 4 12 l 1
 6 12 l 1
8 14 m 1
 8 12 l 1
 6 12 l 1
 6 14 l 1
 8 14 l 1
EndSplineSet
EndChar

StartChar: bar
Encoding: 124 124 91
Width: 12
VWidth: 0
Flags: HW
LayerCount: 2
Fore
SplineSet
4 14 m 5
 6 14 l 5
 6 0 l 5
 4 0 l 5
 4 14 l 5
EndSplineSet
EndChar

StartChar: braceright
Encoding: 125 125 92
Width: 12
VWidth: 0
Flags: HW
LayerCount: 2
Fore
SplineSet
4 2 m 5
 4 0 l 5
 2 0 l 5
 2 2 l 5
 4 2 l 5
6 6 m 1
 6 2 l 1
 4 2 l 1
 4 6 l 1
 6 6 l 1
6 8 m 1
 6 6 l 1
 8 6 l 1
 8 8 l 1
 6 8 l 1
4 12 m 1
 4 8 l 1
 6 8 l 1
 6 12 l 1
 4 12 l 1
2 14 m 1
 2 12 l 1
 4 12 l 1
 4 14 l 1
 2 14 l 1
EndSplineSet
EndChar

StartChar: asciitilde
Encoding: 126 126 93
Width: 12
VWidth: 0
Flags: HW
LayerCount: 2
Fore
SplineSet
8 8 m 5
 8 10 l 5
 10 10 l 5
 10 8 l 5
 8 8 l 5
6 8 m 1
 6 6 l 1
 8 6 l 1
 8 8 l 1
 6 8 l 1
2 8 m 1
 2 10 l 1
 6 10 l 1
 6 8 l 1
 2 8 l 1
0 6 m 1
 0 8 l 1
 2 8 l 1
 2 6 l 1
 0 6 l 1
EndSplineSet
EndChar

StartChar: uni21E7
Encoding: 8679 8679 95
Width: 16
VWidth: 0
Flags: HW
LayerCount: 2
Fore
SplineSet
2 6 m 29
 4 6 l 25
 4 2 l 25
 10 2 l 25
 10 6 l 25
 12 6 l 25
 12 0 l 25
 2 0 l 25
 2 6 l 29
12 8 m 1
 12 6 l 1
 14 6 l 1
 14 8 l 1
 12 8 l 1
10 10 m 1
 10 8 l 1
 12 8 l 1
 12 10 l 1
 10 10 l 1
8 12 m 1
 8 10 l 1
 10 10 l 1
 10 12 l 1
 8 12 l 1
2 8 m 1
 2 6 l 1
 0 6 l 1
 0 8 l 1
 2 8 l 1
4 10 m 1
 4 8 l 1
 2 8 l 1
 2 10 l 1
 4 10 l 1
6 12 m 1
 6 10 l 1
 4 10 l 1
 4 12 l 1
 6 12 l 1
6 14 m 1
 6 12 l 1
 8 12 l 1
 8 14 l 1
 6 14 l 1
EndSplineSet
EndChar

StartChar: uni2318
Encoding: 8984 8984 96
Width: 16
VWidth: 0
Flags: HW
LayerCount: 2
Fore
SplineSet
8 8 m 29
 6 8 l 25
 6 6 l 25
 8 6 l 25
 8 8 l 29
4 12 m 25
 6 12 l 25
 6 10 l 25
 8 10 l 25
 8 12 l 25
 10 12 l 25
 10 10 l 25
 12 10 l 25
 12 8 l 25
 10 8 l 25
 10 6 l 25
 12 6 l 25
 12 4 l 25
 10 4 l 25
 10 2 l 25
 8 2 l 25
 8 4 l 25
 6 4 l 25
 6 2 l 25
 4 2 l 25
 4 4 l 25
 2 4 l 25
 2 6 l 25
 4 6 l 25
 4 8 l 25
 2 8 l 25
 2 10 l 25
 4 10 l 25
 4 12 l 25
12 12 m 1
 12 10 l 1
 14 10 l 1
 14 12 l 1
 12 12 l 1
10 14 m 1
 10 12 l 1
 12 12 l 1
 12 14 l 1
 10 14 l 1
12 2 m 1
 12 4 l 1
 14 4 l 1
 14 2 l 1
 12 2 l 1
10 0 m 1
 10 2 l 1
 12 2 l 1
 12 0 l 1
 10 0 l 1
2 0 m 1
 2 2 l 1
 4 2 l 1
 4 0 l 1
 2 0 l 1
0 2 m 1
 0 4 l 1
 2 4 l 1
 2 2 l 1
 0 2 l 1
2 14 m 1
 2 12 l 1
 4 12 l 1
 4 14 l 1
 2 14 l 1
0 12 m 1
 0 10 l 1
 2 10 l 1
 2 12 l 1
 0 12 l 1
EndSplineSet
EndChar

StartChar: uni2303
Encoding: 8963 8963 97
Width: 16
VWidth: 0
Flags: HW
LayerCount: 2
Fore
SplineSet
12 8 m 5
 12 6 l 5
 14 6 l 5
 14 8 l 5
 12 8 l 5
0 8 m 5
 0 6 l 5
 2 6 l 5
 2 8 l 5
 0 8 l 5
10 10 m 5
 10 8 l 5
 12 8 l 5
 12 10 l 5
 10 10 l 5
8 12 m 5
 8 10 l 5
 10 10 l 5
 10 12 l 5
 8 12 l 5
2 10 m 5
 2 8 l 5
 4 8 l 5
 4 10 l 5
 2 10 l 5
4 12 m 5
 4 10 l 5
 6 10 l 5
 6 12 l 5
 4 12 l 5
6 14 m 5
 6 12 l 5
 8 12 l 5
 8 14 l 5
 6 14 l 5
EndSplineSet
EndChar

StartChar: uni2325
Encoding: 8997 8997 98
Width: 16
VWidth: 0
Flags: HW
LayerCount: 2
Fore
SplineSet
8 14 m 5
 8 12 l 5
 14 12 l 5
 14 14 l 5
 8 14 l 5
8 2 m 1
 8 0 l 1
 12 0 l 1
 12 2 l 1
 8 2 l 1
6 6 m 1
 6 2 l 1
 8 2 l 1
 8 6 l 1
 6 6 l 1
4 10 m 1
 4 6 l 1
 6 6 l 1
 6 10 l 1
 4 10 l 1
0 14 m 25
 4 14 l 25
 4 10 l 25
 2 10 l 25
 2 12 l 25
 0 12 l 25
 0 14 l 25
EndSplineSet
EndChar

StartChar: uni232B
Encoding: 9003 9003 99
Width: 20
VWidth: 0
Flags: HW
LayerCount: 2
Fore
SplineSet
6 14 m 29
 18 14 l 25
 18 0 l 25
 6 0 l 25
 6 2 l 25
 16 2 l 25
 16 12 l 25
 6 12 l 25
 6 14 l 29
12 6 m 1
 12 4 l 1
 14 4 l 1
 14 6 l 1
 12 6 l 1
8 6 m 1
 8 4 l 1
 10 4 l 1
 10 6 l 1
 8 6 l 1
12 10 m 1
 12 8 l 1
 14 8 l 1
 14 10 l 1
 12 10 l 1
10 8 m 1
 10 6 l 1
 12 6 l 1
 12 8 l 1
 10 8 l 1
8 10 m 1
 8 8 l 1
 10 8 l 1
 10 10 l 1
 8 10 l 1
4 4 m 1
 4 2 l 1
 6 2 l 1
 6 4 l 1
 4 4 l 1
4 12 m 1
 4 10 l 1
 6 10 l 1
 6 12 l 1
 4 12 l 1
2 6 m 1
 2 4 l 1
 4 4 l 1
 4 6 l 1
 2 6 l 1
2 10 m 1
 2 8 l 1
 4 8 l 1
 4 10 l 1
 2 10 l 1
0 8 m 1
 0 6 l 1
 2 6 l 1
 2 8 l 1
 0 8 l 1
EndSplineSet
EndChar

StartChar: arrowleft
Encoding: 8592 8592 100
Width: 16
VWidth: 0
Flags: HW
LayerCount: 2
Fore
SplineSet
0 8 m 29
 2 8 l 25
 2 10 l 25
 4 10 l 25
 4 12 l 25
 6 12 l 25
 6 8 l 25
 14 8 l 25
 14 6 l 25
 6 6 l 25
 6 2 l 25
 4 2 l 25
 4 4 l 25
 2 4 l 25
 2 6 l 25
 0 6 l 25
 0 8 l 29
EndSplineSet
EndChar

StartChar: arrowup
Encoding: 8593 8593 101
Width: 12
VWidth: 0
Flags: HW
LayerCount: 2
Fore
SplineSet
4 14 m 29
 6 14 l 25
 6 12 l 25
 8 12 l 25
 8 10 l 25
 10 10 l 25
 10 8 l 25
 6 8 l 25
 6 0 l 25
 4 0 l 25
 4 8 l 25
 0 8 l 25
 0 10 l 25
 2 10 l 25
 2 12 l 25
 4 12 l 25
 4 14 l 29
EndSplineSet
EndChar

StartChar: arrowright
Encoding: 8594 8594 102
Width: 16
VWidth: 0
Flags: HW
LayerCount: 2
Fore
SplineSet
0 8 m 29
 8 8 l 25
 8 12 l 25
 10 12 l 25
 10 10 l 25
 12 10 l 25
 12 8 l 25
 14 8 l 25
 14 6 l 25
 12 6 l 25
 12 4 l 25
 10 4 l 25
 10 2 l 25
 8 2 l 25
 8 6 l 25
 0 6 l 25
 0 8 l 29
EndSplineSet
EndChar

StartChar: arrowdown
Encoding: 8595 8595 103
Width: 12
VWidth: 0
Flags: HW
LayerCount: 2
Fore
SplineSet
4 14 m 29
 6 14 l 25
 6 6 l 25
 10 6 l 25
 10 4 l 25
 8 4 l 25
 8 2 l 25
 6 2 l 25
 6 0 l 25
 4 0 l 25
 4 2 l 25
 2 2 l 25
 2 4 l 25
 0 4 l 25
 0 6 l 25
 4 6 l 25
 4 14 l 29
EndSplineSet
EndChar

StartChar: uni23CE
Encoding: 9166 9166 104
Width: 16
VWidth: 0
Flags: HW
LayerCount: 2
Fore
SplineSet
0 8 m 29
 2 8 l 25
 2 10 l 25
 4 10 l 25
 4 12 l 25
 6 12 l 25
 6 8 l 25
 12 8 l 25
 12 6 l 25
 6 6 l 25
 6 2 l 25
 4 2 l 25
 4 4 l 25
 2 4 l 25
 2 6 l 25
 0 6 l 25
 0 8 l 29
12 14 m 1
 12 8 l 1
 14 8 l 1
 14 14 l 1
 12 14 l 1
EndSplineSet
EndChar

StartChar: uni2423
Encoding: 9251 9251 105
Width: 16
VWidth: 0
Flags: HW
LayerCount: 2
Fore
SplineSet
0 4 m 29
 2 4 l 25
 2 2 l 25
 12 2 l 25
 12 4 l 25
 14 4 l 25
 14 0 l 25
 0 0 l 25
 0 4 l 29
EndSplineSet
EndChar

StartChar: multiply
Encoding: 215 215 106
Width: 12
VWidth: 0
Flags: HW
LayerCount: 2
Fore
SplineSet
0 4 m 5
 0 2 l 5
 2 2 l 5
 2 4 l 5
 0 4 l 5
8 4 m 1
 8 2 l 1
 10 2 l 1
 10 4 l 1
 8 4 l 1
6 6 m 1
 6 4 l 1
 8 4 l 1
 8 6 l 1
 6 6 l 1
2 6 m 1
 2 4 l 1
 4 4 l 1
 4 6 l 1
 2 6 l 1
8 12 m 1
 8 10 l 1
 10 10 l 1
 10 12 l 1
 8 12 l 1
6 10 m 1
 6 8 l 1
 8 8 l 1
 8 10 l 1
 6 10 l 1
0 12 m 1
 0 10 l 1
 2 10 l 1
 2 12 l 1
 0 12 l 1
2 10 m 1
 2 8 l 1
 4 8 l 1
 4 10 l 1
 2 10 l 1
4 8 m 1
 4 6 l 1
 6 6 l 1
 6 8 l 1
 4 8 l 1
EndSplineSet
EndChar

StartChar: plusminus
Encoding: 177 177 107
Width: 16
Flags: HW
LayerCount: 2
Fore
SplineSet
0 2 m 29
 10 2 l 25
 10 0 l 25
 0 0 l 25
 0 2 l 29
4 14 m 25
 6 14 l 25
 6 10 l 25
 10 10 l 25
 10 8 l 25
 6 8 l 25
 6 4 l 25
 4 4 l 25
 4 8 l 25
 0 8 l 25
 0 10 l 25
 4 10 l 25
 4 14 l 25
EndSplineSet
EndChar

StartChar: uni238B
Encoding: 9099 9099 108
Width: 16
Flags: HW
LayerCount: 2
Fore
SplineSet
0 6 m 29
 2 6 l 25
 2 4 l 25
 0 4 l 25
 0 6 l 29
2 2 m 25
 2 4 l 25
 4 4 l 25
 4 2 l 25
 2 2 l 25
10 0 m 25
 4 0 l 25
 4 2 l 25
 10 2 l 25
 10 0 l 25
12 2 m 25
 10 2 l 25
 10 4 l 25
 12 4 l 25
 12 2 l 25
14 10 m 25
 14 4 l 25
 12 4 l 25
 12 10 l 25
 14 10 l 25
12 12 m 25
 12 10 l 25
 10 10 l 25
 10 12 l 25
 12 12 l 25
8 14 m 25
 10 14 l 25
 10 12 l 25
 8 12 l 25
 8 14 l 25
8 8 m 25
 8 6 l 25
 6 6 l 25
 6 8 l 25
 8 8 l 25
6 10 m 25
 6 8 l 25
 4 8 l 25
 4 10 l 25
 6 10 l 25
0 14 m 25
 6 14 l 25
 6 12 l 25
 4 12 l 25
 4 10 l 25
 2 10 l 25
 2 8 l 25
 0 8 l 25
 0 14 l 25
EndSplineSet
EndChar

StartChar: uni2387
Encoding: 9095 9095 109
Width: 16
Flags: HW
LayerCount: 2
Fore
SplineSet
8 0 m 29
 8 2 l 25
 14 2 l 25
 14 0 l 25
 8 0 l 29
12 12 m 25
 8 12 l 25
 8 14 l 25
 12 14 l 25
 12 12 l 25
8 8 m 25
 6 8 l 25
 6 12 l 25
 8 12 l 25
 8 8 l 25
6 4 m 25
 4 4 l 25
 4 8 l 25
 6 8 l 25
 6 4 l 25
0 0 m 25
 0 2 l 25
 2 2 l 25
 2 4 l 25
 4 4 l 25
 4 0 l 25
 0 0 l 25
EndSplineSet
EndChar

StartChar: uni2326
Encoding: 8998 8998 110
Width: 16
Flags: HW
LayerCount: 2
Fore
SplineSet
18 8 m 29
 18 6 l 25
 16 6 l 25
 16 8 l 25
 18 8 l 29
16 6 m 25
 16 4 l 25
 14 4 l 25
 14 6 l 25
 16 6 l 25
16 10 m 25
 16 8 l 25
 14 8 l 25
 14 10 l 25
 16 10 l 25
14 4 m 25
 14 2 l 25
 12 2 l 25
 12 4 l 25
 14 4 l 25
14 12 m 25
 14 10 l 25
 12 10 l 25
 12 12 l 25
 14 12 l 25
10 6 m 25
 10 4 l 25
 8 4 l 25
 8 6 l 25
 10 6 l 25
8 10 m 25
 10 10 l 25
 10 8 l 25
 8 8 l 25
 8 10 l 25
6 4 m 25
 4 4 l 25
 4 6 l 25
 6 6 l 25
 6 4 l 25
8 8 m 25
 8 6 l 25
 6 6 l 25
 6 8 l 25
 8 8 l 25
4 10 m 25
 6 10 l 25
 6 8 l 25
 4 8 l 25
 4 10 l 25
0 0 m 1
 0 14 l 1
 12 14 l 1
 12 12 l 1
 2 12 l 1
 2 2 l 1
 12 2 l 1
 12 0 l 1
 0 0 l 1
EndSplineSet
EndChar

StartChar: divide
Encoding: 247 247 111
Width: 16
Flags: HW
LayerCount: 2
Fore
SplineSet
4 4 m 29
 6 4 l 25
 6 2 l 25
 4 2 l 25
 4 4 l 29
4 12 m 25
 6 12 l 25
 6 10 l 25
 4 10 l 25
 4 12 l 25
0 8 m 25
 10 8 l 25
 10 6 l 25
 0 6 l 25
 0 8 l 25
EndSplineSet
EndChar

StartChar: copyright
Encoding: 169 169 112
Width: 16
Flags: HW
LayerCount: 2
Fore
SplineSet
10 6 m 29
 10 4 l 25
 4 4 l 25
 4 10 l 25
 10 10 l 25
 10 8 l 25
 6 8 l 25
 6 6 l 25
 10 6 l 29
14 10 m 25
 14 4 l 25
 12 4 l 25
 12 10 l 25
 14 10 l 25
10 4 m 25
 12 4 l 25
 12 2 l 25
 10 2 l 25
 10 4 l 25
4 0 m 25
 4 2 l 25
 10 2 l 25
 10 0 l 25
 4 0 l 25
12 12 m 25
 12 10 l 25
 10 10 l 25
 10 12 l 25
 12 12 l 25
4 14 m 25
 10 14 l 25
 10 12 l 25
 4 12 l 25
 4 14 l 25
4 4 m 25
 4 2 l 25
 2 2 l 25
 2 4 l 25
 4 4 l 25
2 12 m 25
 4 12 l 25
 4 10 l 25
 2 10 l 25
 2 12 l 25
0 10 m 25
 2 10 l 25
 2 4 l 25
 0 4 l 25
 0 10 l 25
EndSplineSet
EndChar
